<?xml version="1.0" encoding="UTF-8" standalone="no"?>
<svg
   xmlns:dc="http://purl.org/dc/elements/1.1/"
   xmlns:cc="http://creativecommons.org/ns#"
   xmlns:rdf="http://www.w3.org/1999/02/22-rdf-syntax-ns#"
   xmlns:svg="http://www.w3.org/2000/svg"
   xmlns="http://www.w3.org/2000/svg"
   xmlns:sodipodi="http://sodipodi.sourceforge.net/DTD/sodipodi-0.dtd"
   xmlns:inkscape="http://www.inkscape.org/namespaces/inkscape"
   width="300.000000px"
   height="300.000000px"
   viewBox="95 10 320 320"
   version="1.1"
   id="svg32"
   sodipodi:docname="t.svg"
   inkscape:version="1.0.2 (e86c870879, 2021-01-15)">
  <metadata
     id="metadata36">
    <rdf:RDF>
      <cc:Work
         rdf:about="">
        <dc:format>image/svg+xml</dc:format>
        <dc:type
           rdf:resource="http://purl.org/dc/dcmitype/StillImage" />
      </cc:Work>
    </rdf:RDF>
  </metadata>
  <sodipodi:namedview
     pagecolor="#ffffff"
     bordercolor="#666666"
     borderopacity="1"
     objecttolerance="10"
     gridtolerance="10"
     guidetolerance="10"
     inkscape:pageopacity="0"
     inkscape:pageshadow="2"
     inkscape:window-width="1276"
     inkscape:window-height="643"
     id="namedview34"
     showgrid="false"
     inkscape:zoom="1.1524162"
     inkscape:cx="164.50252"
     inkscape:cy="100.04367"
     inkscape:window-x="0"
     inkscape:window-y="20"
     inkscape:window-maximized="0"
     inkscape:current-layer="svg32" />
  <defs
     id="defs18">
    <linearGradient
       id="g1"
       x1="383.94928"
       y1="213.43648"
       x2="115.40673"
       y2="216.70363"
       gradientUnits="userSpaceOnUse">
      <stop
         offset="0.0"
         style="stop-color:#660088;"
         id="stop2" />
      <stop
         offset="0.5"
         style="stop-color:#ff0000;"
         id="stop4" />
      <stop
         offset="0.8"
         style="stop-color:#ffaa00;"
         id="stop6" />
      <stop
         offset="1.0"
         style="stop-color:#ffffaa;"
         id="stop8" />
    </linearGradient>
    <linearGradient
       id="g2"
       x1="305.04358"
       y1="90.284523"
       x2="226.65259"
       y2="300.08252"
       gradientUnits="userSpaceOnUse">
      <stop
         offset="0.05"
         style="stop-color:#4444ff;stop-opacity:0.8;"
         id="stop11" />
      <stop
         offset="0.4"
         style="stop-color:#00ffff;stop-opacity:0.4;"
         id="stop13" />
      <stop
         offset="1.0"
         style="stop-color:#00ff44;stop-opacity:1.0;"
         id="stop15" />
    </linearGradient>
  </defs>

  <path
     style="fill:#fff;opacity:0.4"
     d="m 219.58692,284.87915 c 0.41801,5.83953 3.54085,11.96508 10.02786,14.35696 6.00791,2.21523 11.19894,1.25682 16.09631,-3.01583 L 381.45917,140.68421 c 7.30965,-12.04494 -2.71001,-23.27736 -11.84356,-23.70163 -65.39356,2.02674 -85.9525,-7.61561 -121.79899,-57.711764 -11.70238,-12.888491 -27.74199,-2.808563 -27.50477,9.33908"
/>

  <path
     style="fill:url(#g1)"
     d="m 220,300 h -20 c -46.39195,0 -83.99996,-37.60808 -83.99996,-84 0,-46.39192 37.60801,-84 83.99996,-84 h 52.5 c 5.03376,-0.0431 8.38823,1.75118 11.24616,4.26976 35.2755,39.78454 86.58536,102.21221 116.39189,138.00522 2.93771,3.46434 5.45846,9.31206 2.78892,16.19374 -2.78222,6.21062 -8.41277,9.30312 -13.7671,9.48948"
/>
  <path
     style="fill:url(#g2)"
     d="m 219.58692,284.87915 c 0.41801,5.83953 3.54085,11.96508 10.02786,14.35696 6.00791,2.21523 11.19894,1.25682 16.09631,-3.01583 L 381.45917,140.68421 c 7.30965,-12.04494 -2.71001,-23.27736 -11.84356,-23.70163 -65.39356,2.02674 -85.9525,-7.61561 -121.79899,-57.711764 -11.70238,-12.888491 -27.74199,-2.808563 -27.50477,9.33908"
/>
  <g opacity='0'
     id="g946">
    <circle
       style="opacity:0.5;fill:#555555;stroke-width:0.614087"
       cx="368.56683"
       cy="132.34744"
       id="ellipse28"
       r="15.352171" />
    <circle
       style="opacity:0.5;fill:#555555;stroke-width:0.614087"
       cx="368.71054"
       cy="284.62418"
       id="ellipse28-6"
       r="15.352171" />
    <circle
       style="opacity:0.5;fill:#555555;stroke-width:0.614087"
       cx="235.33922"
       cy="284.63748"
       id="ellipse28-7"
       r="15.352171" />
    <circle
       style="opacity:0.5;fill:#555555;stroke-width:0.614087"
       cx="235.59369"
       cy="68.619751"
       id="ellipse28-5"
       r="15.352171" />
    <circle
       style="opacity:0.5;fill:#555555;stroke-width:0.614087"
       cx="253.08675"
       cy="147.35054"
       id="ellipse28-3"
       r="15.352171" />
  </g>
</svg>
